<mxfile host="65bd71144e">
    <diagram id="88sxWAX_hh-g183Zb9be" name="PÃ¡gina-1">
        <mxGraphModel dx="1087" dy="550" grid="1" gridSize="10" guides="1" tooltips="1" connect="1" arrows="1" fold="1" page="1" pageScale="1" pageWidth="1169" pageHeight="827" math="0" shadow="0">
            <root>
                <mxCell id="0"/>
                <mxCell id="1" parent="0"/>
                <mxCell id="2" value="Game" style="swimlane;fontStyle=1;align=center;verticalAlign=top;childLayout=stackLayout;horizontal=1;startSize=26;horizontalStack=0;resizeParent=1;resizeParentMax=0;resizeLast=0;collapsible=1;marginBottom=0;fontFamily=Handlee;fontSource=https%3A%2F%2Ffonts.googleapis.com%2Fcss%3Ffamily%3DHandlee;sketch=1;fillColor=#f0a30a;strokeColor=#BD7000;fontColor=#000000;" vertex="1" parent="1">
                    <mxGeometry x="510" y="249" width="160" height="190" as="geometry"/>
                </mxCell>
                <mxCell id="3" value="+ id&#10;+ jugador1&#10;+ jugador2&#10;points&#10;victories" style="text;align=left;verticalAlign=top;spacingLeft=4;spacingRight=4;overflow=hidden;rotatable=0;points=[[0,0.5],[1,0.5]];portConstraint=eastwest;fontFamily=Handlee;fontSource=https%3A%2F%2Ffonts.googleapis.com%2Fcss%3Ffamily%3DHandlee;fontStyle=1;sketch=1;fillColor=#fad9d5;strokeColor=#ae4132;" vertex="1" parent="2">
                    <mxGeometry y="26" width="160" height="84" as="geometry"/>
                </mxCell>
                <mxCell id="4" value="" style="line;strokeWidth=1;align=left;verticalAlign=middle;spacingTop=-1;spacingLeft=3;spacingRight=3;rotatable=0;labelPosition=right;points=[];portConstraint=eastwest;fontFamily=Handlee;fontSource=https%3A%2F%2Ffonts.googleapis.com%2Fcss%3Ffamily%3DHandlee;fontStyle=1;sketch=1;fillColor=#fff2cc;strokeColor=#d6b656;" vertex="1" parent="2">
                    <mxGeometry y="110" width="160" height="8" as="geometry"/>
                </mxCell>
                <mxCell id="5" value="addPoint()&#10;addWin()&#10;stats()&#10;solveWinner()" style="text;align=left;verticalAlign=top;spacingLeft=4;spacingRight=4;overflow=hidden;rotatable=0;points=[[0,0.5],[1,0.5]];portConstraint=eastwest;fontFamily=Handlee;fontSource=https%3A%2F%2Ffonts.googleapis.com%2Fcss%3Ffamily%3DHandlee;fontStyle=1;sketch=1;fillColor=#fad9d5;strokeColor=#ae4132;" vertex="1" parent="2">
                    <mxGeometry y="118" width="160" height="72" as="geometry"/>
                </mxCell>
                <mxCell id="14" style="edgeStyle=orthogonalEdgeStyle;html=1;exitX=0.5;exitY=0;exitDx=0;exitDy=0;entryX=0.5;entryY=1;entryDx=0;entryDy=0;entryPerimeter=0;rounded=1;fontFamily=Handlee;fontSource=https%3A%2F%2Ffonts.googleapis.com%2Fcss%3Ffamily%3DHandlee;fontStyle=1;sketch=1;fillColor=#fff2cc;strokeColor=#d6b656;" edge="1" parent="1" source="6" target="5">
                    <mxGeometry relative="1" as="geometry"/>
                </mxCell>
                <mxCell id="6" value="NPC" style="swimlane;fontStyle=1;align=center;verticalAlign=top;childLayout=stackLayout;horizontal=1;startSize=26;horizontalStack=0;resizeParent=1;resizeParentMax=0;resizeLast=0;collapsible=1;marginBottom=0;fontFamily=Handlee;fontSource=https%3A%2F%2Ffonts.googleapis.com%2Fcss%3Ffamily%3DHandlee;sketch=1;fillColor=#f8cecc;strokeColor=#b85450;" vertex="1" parent="1">
                    <mxGeometry x="420" y="479" width="160" height="100" as="geometry"/>
                </mxCell>
                <mxCell id="7" value="godMode" style="text;align=left;verticalAlign=top;spacingLeft=4;spacingRight=4;overflow=hidden;rotatable=0;points=[[0,0.5],[1,0.5]];portConstraint=eastwest;fontFamily=Handlee;fontSource=https%3A%2F%2Ffonts.googleapis.com%2Fcss%3Ffamily%3DHandlee;fontStyle=1;sketch=1;fillColor=#fff2cc;strokeColor=#d6b656;" vertex="1" parent="6">
                    <mxGeometry y="26" width="160" height="24" as="geometry"/>
                </mxCell>
                <mxCell id="8" value="" style="line;strokeWidth=1;align=left;verticalAlign=middle;spacingTop=-1;spacingLeft=3;spacingRight=3;rotatable=0;labelPosition=right;points=[];portConstraint=eastwest;fontFamily=Handlee;fontSource=https%3A%2F%2Ffonts.googleapis.com%2Fcss%3Ffamily%3DHandlee;fontStyle=1;sketch=1;fillColor=#fff2cc;strokeColor=#d6b656;" vertex="1" parent="6">
                    <mxGeometry y="50" width="160" height="8" as="geometry"/>
                </mxCell>
                <mxCell id="9" value="genPlayer()&#10;cheatEnable()" style="text;align=left;verticalAlign=top;spacingLeft=4;spacingRight=4;overflow=hidden;rotatable=0;points=[[0,0.5],[1,0.5]];portConstraint=eastwest;fontFamily=Handlee;fontSource=https%3A%2F%2Ffonts.googleapis.com%2Fcss%3Ffamily%3DHandlee;fontStyle=1;sketch=1;fillColor=#fff2cc;strokeColor=#d6b656;" vertex="1" parent="6">
                    <mxGeometry y="58" width="160" height="42" as="geometry"/>
                </mxCell>
                <mxCell id="15" style="edgeStyle=orthogonalEdgeStyle;rounded=1;html=1;exitX=0.5;exitY=0;exitDx=0;exitDy=0;entryX=0.5;entryY=1;entryDx=0;entryDy=0;entryPerimeter=0;fontFamily=Handlee;fontSource=https%3A%2F%2Ffonts.googleapis.com%2Fcss%3Ffamily%3DHandlee;fontStyle=1;sketch=1;fillColor=#fff2cc;strokeColor=#d6b656;" edge="1" parent="1" source="10" target="5">
                    <mxGeometry relative="1" as="geometry"/>
                </mxCell>
                <mxCell id="10" value="Player" style="swimlane;fontStyle=1;align=center;verticalAlign=top;childLayout=stackLayout;horizontal=1;startSize=26;horizontalStack=0;resizeParent=1;resizeParentMax=0;resizeLast=0;collapsible=1;marginBottom=0;fontFamily=Handlee;fontSource=https%3A%2F%2Ffonts.googleapis.com%2Fcss%3Ffamily%3DHandlee;sketch=1;fillColor=#f8cecc;strokeColor=#b85450;" vertex="1" parent="1">
                    <mxGeometry x="590" y="479" width="160" height="100" as="geometry"/>
                </mxCell>
                <mxCell id="11" value="name" style="text;align=left;verticalAlign=top;spacingLeft=4;spacingRight=4;overflow=hidden;rotatable=0;points=[[0,0.5],[1,0.5]];portConstraint=eastwest;fontFamily=Handlee;fontSource=https%3A%2F%2Ffonts.googleapis.com%2Fcss%3Ffamily%3DHandlee;fontStyle=1;sketch=1;fillColor=#fff2cc;strokeColor=#d6b656;" vertex="1" parent="10">
                    <mxGeometry y="26" width="160" height="24" as="geometry"/>
                </mxCell>
                <mxCell id="12" value="" style="line;strokeWidth=1;align=left;verticalAlign=middle;spacingTop=-1;spacingLeft=3;spacingRight=3;rotatable=0;labelPosition=right;points=[];portConstraint=eastwest;fontFamily=Handlee;fontSource=https%3A%2F%2Ffonts.googleapis.com%2Fcss%3Ffamily%3DHandlee;fontStyle=1;sketch=1;fillColor=#fff2cc;strokeColor=#d6b656;" vertex="1" parent="10">
                    <mxGeometry y="50" width="160" height="8" as="geometry"/>
                </mxCell>
                <mxCell id="13" value="askAction()&#10;continueGame()" style="text;align=left;verticalAlign=top;spacingLeft=4;spacingRight=4;overflow=hidden;rotatable=0;points=[[0,0.5],[1,0.5]];portConstraint=eastwest;fontFamily=Handlee;fontSource=https%3A%2F%2Ffonts.googleapis.com%2Fcss%3Ffamily%3DHandlee;fontStyle=1;sketch=1;fillColor=#fff2cc;strokeColor=#d6b656;" vertex="1" parent="10">
                    <mxGeometry y="58" width="160" height="42" as="geometry"/>
                </mxCell>
            </root>
        </mxGraphModel>
    </diagram>
</mxfile>